<svg width="20" height="20" viewBox="0 0 20 20" fill="none" xmlns="http://www.w3.org/2000/svg">
<path fill-rule="evenodd" clip-rule="evenodd" d="M2 7.00001H3.99978C4.00007 7.36655 4.20262 7.71935 4.55279 7.89443C5.04676 8.14142 5.64744 7.9412 5.89443 7.44722L6.11803 7.00001H13.882L14.1056 7.44722C14.3526 7.9412 14.9532 8.14142 15.4472 7.89443C15.7974 7.71935 15.9999 7.36655 16.0002 7.00001H18V9.00001H2V7.00001ZM15.118 5.00001H18C19.1046 5.00001 20 5.89544 20 7.00001V9.00001C20 9.84002 19.4821 10.5591 18.7482 10.8553C18.7516 10.9031 18.7534 10.9514 18.7534 11C18.7534 11.1459 18.7374 11.2914 18.7058 11.4339L17.1502 18.4339C16.9469 19.3489 16.1352 20 15.1978 20H4.80217C3.86477 20 3.05315 19.3489 2.8498 18.4339L1.29424 11.4339C1.25095 11.239 1.23767 11.0445 1.25134 10.8552C0.517673 10.5588 0 9.83986 0 9.00001V7.00001C0 5.89544 0.89543 5.00001 2 5.00001H4.88197L7.10557 0.552792C7.35256 0.0588133 7.95323 -0.141411 8.44721 0.105578C8.94119 0.352567 9.14142 0.953241 8.89443 1.44722L7.11803 5.00001H12.882L11.1056 1.44722C10.8586 0.953241 11.0588 0.352567 11.5528 0.105578C12.0468 -0.141411 12.6474 0.0588133 12.8944 0.552792L15.118 5.00001ZM3.24662 11H16.7534L15.1978 18H4.80217L3.24662 11Z" fill="#53889D"/>
</svg>
