<svg width="40" height="40" viewBox="0 0 40 40" fill="none" xmlns="http://www.w3.org/2000/svg">
<path d="M19.0911 25.5556H10.9089C10.9089 25.5556 12.4122 32.7778 13.5211 36.3911C14.63 40.0067 18.6367 40 19.5456 40C21.3622 40 24.4611 40.0067 25.57 36.3911C26.6778 32.7778 29.0922 25.5556 29.0922 25.5556H19.0911Z" fill="#FFCC4D"/>
<path d="M20 31.1111C23.8444 31.1111 26.4789 30.2767 27.8856 29.1944C28.2733 28.0167 28.6111 26.9978 28.83 26.34C28.636 26.032 28.383 25.7654 28.0856 25.5556H11.9144C11.5356 25.8356 11.2644 26.14 11.1011 26.4633C11.2222 27.0278 11.3922 27.8122 11.5978 28.7267C12.8078 30.0267 15.6167 31.1111 20 31.1111Z" fill="#FFAC33"/>
<path d="M10 22.2222V25.5556C10 27.3967 14.4778 28.8889 20 28.8889C25.5222 28.8889 30 27.3967 30 25.5556V22.2222H10Z" fill="#FFCC4D"/>
<path d="M29.0922 22.7778C29.0922 24.3122 25.0211 25.5556 20 25.5556C14.9789 25.5556 10.9089 24.3122 10.9089 22.7778C10.9089 21.2433 14.9789 20 20 20C25.0211 20 29.0922 21.2433 29.0922 22.7778Z" fill="#F4900C"/>
<path d="M29.8911 15.4533C30.1453 14.3609 30.0449 13.2159 29.6044 12.1844C29.1647 11.1441 28.403 10.2721 27.4311 9.69667C27.6536 8.87336 27.5833 7.99834 27.2322 7.22111C26.6756 5.94889 25.4667 5.10667 24.1056 4.87333C24.2744 4.49444 24.3433 4.02889 24.1489 3.44222C23.4878 1.46222 20.8489 2.79333 18.87 0.154442C17.23 1.13778 16.8956 2.60778 16.9733 3.83778C15.4711 4.10555 14.6044 4.42889 14.6044 4.42889V4.43C14.152 4.61298 13.7644 4.92688 13.4914 5.3315C13.2184 5.73612 13.0725 6.21302 13.0722 6.70111C13.0722 7.24555 13.2556 7.74444 13.5567 8.15111L13.0233 8.35L13.0244 8.35222C11.4867 8.92667 10.4022 10.3156 10.4022 11.94C10.4022 12.6311 10.6144 13.27 10.9578 13.8311C9.08445 14.6644 7.77778 16.4867 7.77778 18.6156C7.77778 21.3878 9.98778 23.6356 12.7867 23.8511C15.7456 24.7689 21.6644 24.5178 26.2044 23.75C28.8389 23.3056 31.5278 21.7278 31.5278 19.0556C31.5264 18.3733 31.3797 17.6993 31.0975 17.0781C30.8153 16.457 30.404 15.9031 29.8911 15.4533Z" fill="#FFE8B6"/>
<path d="M16.3889 20.2356C13.9 20.94 10.1644 21.12 8.17778 20.5844C8.98334 22.5222 10.9311 23.8922 13.2167 23.8922C20.0444 23.8922 27.0133 19.2444 27.0133 19.2444C29.2011 17.8822 30.3156 15.7333 29.9567 13.48C27.6878 16.6889 18.9911 19.4989 16.3889 20.2356ZM14.5944 15.8122C19.86 15.8122 25.2333 12.4022 25.2333 12.4022C26.9922 11.3611 27.8689 9.69333 27.4778 7.96445C20.7822 12.3178 14.6289 13.5978 10.9022 13.74C11.6056 14.9667 12.9867 15.8122 14.5944 15.8122ZM13.1478 7.28333C13.2772 7.81543 13.5814 8.2887 14.0117 8.62736C14.442 8.96601 14.9735 9.15044 15.5211 9.15111C16.2489 9.15111 16.9789 9.02778 17.6722 8.84333C18.0989 8.71445 18.5211 8.57667 18.9422 8.42667C20.56 7.79889 21.7389 6.99222 21.7389 6.99222C22.9122 6.24 24.12 4.91111 24.12 4.91111C24.12 4.91111 24.53 3.98778 23.8422 3.44556C21.9033 5.38778 15.7167 7.31 13.1478 7.28333Z" fill="#FFD983"/>
</svg>
