<svg width="36" height="36" viewBox="0 0 36 36" fill="none" xmlns="http://www.w3.org/2000/svg">
<g clip-path="url(#clip0_31_338)">
<path d="M11.626 7.488C11.5149 7.60351 11.4243 7.73709 11.358 7.883L11.35 7.875L0.134001 33.141L0.145001 33.152C-0.0629987 33.555 0.285001 34.375 0.998001 35.089C1.711 35.802 2.531 36.15 2.934 35.942L2.944 35.952L28.21 24.735L28.202 24.726C28.349 24.656 28.484 24.571 28.597 24.457C30.159 22.895 27.626 17.83 22.941 13.144C18.254 8.458 13.189 5.926 11.626 7.488Z" fill="#FFAC33"/>
<path d="M13 12L0.416001 32.506L0.134001 33.141L0.145001 33.152C-0.0629987 33.555 0.285001 34.375 0.998001 35.089C1.23 35.321 1.471 35.497 1.707 35.646L17 17L13 12Z" fill="#FDBE61"/>
<path d="M23.012 13.066C27.682 17.738 30.275 22.718 28.801 24.19C27.328 25.664 22.348 23.072 17.675 18.402C13.004 13.73 10.412 8.748 11.885 7.275C13.359 5.802 18.339 8.394 23.012 13.066Z" fill="#F4900C"/>
<path d="M18.59 13.609C18.488 13.6917 18.3706 13.7533 18.2446 13.7902C18.1186 13.8272 17.9865 13.8386 17.856 13.824C16.988 13.73 16.258 13.428 15.747 12.951C15.206 12.446 14.939 11.768 15.012 11.089C15.14 9.897 16.336 8.803 18.375 9.023C19.168 9.108 19.522 8.853 19.534 8.731C19.548 8.61 19.257 8.285 18.464 8.199C17.596 8.105 16.866 7.803 16.354 7.326C15.813 6.821 15.545 6.143 15.619 5.464C15.749 4.272 16.944 3.178 18.981 3.399C19.559 3.461 19.864 3.342 19.993 3.265C20.096 3.202 20.137 3.142 20.141 3.107C20.153 2.986 19.866 2.661 19.071 2.575C18.9404 2.56105 18.8138 2.52145 18.6985 2.45847C18.5832 2.39549 18.4815 2.31036 18.3992 2.20798C18.3169 2.10559 18.2556 1.98797 18.2188 1.86184C18.1821 1.73572 18.1706 1.60357 18.185 1.473C18.1988 1.34241 18.2383 1.21585 18.3012 1.10056C18.3641 0.985281 18.4491 0.883556 18.5514 0.80123C18.6537 0.718903 18.7713 0.657598 18.8973 0.620834C19.0234 0.58407 19.1555 0.572571 19.286 0.586999C21.323 0.805999 22.259 2.129 22.13 3.322C22 4.516 20.805 5.608 18.766 5.389C18.188 5.326 17.886 5.446 17.756 5.523C17.653 5.585 17.611 5.646 17.607 5.68C17.594 5.802 17.883 6.126 18.678 6.212C20.715 6.432 21.651 7.754 21.522 8.947C21.393 10.139 20.198 11.233 18.16 11.012C17.582 10.95 17.278 11.07 17.148 11.146C17.044 11.21 17.004 11.27 17 11.304C16.987 11.425 17.276 11.75 18.07 11.836C18.2666 11.8572 18.4525 11.9363 18.6042 12.0631C18.7559 12.19 18.8666 12.359 18.9223 12.5488C18.9779 12.7386 18.9761 12.9406 18.9169 13.1293C18.8578 13.318 18.744 13.4849 18.59 13.609Z" fill="#F3A492"/>
<path d="M30.661 22.857C32.634 22.3 33.995 23.18 34.319 24.335C34.643 25.489 33.941 26.95 31.969 27.505C31.199 27.721 30.968 28.089 30.999 28.206C31.033 28.324 31.424 28.518 32.192 28.301C34.164 27.746 35.525 28.626 35.849 29.78C36.175 30.935 35.471 32.394 33.498 32.95C32.729 33.166 32.497 33.535 32.531 33.652C32.564 33.769 32.954 33.963 33.723 33.747C33.8506 33.7076 33.9848 33.6941 34.1177 33.7073C34.2505 33.7206 34.3794 33.7603 34.4967 33.8242C34.614 33.8881 34.7172 33.9748 34.8005 34.0792C34.8837 34.1837 34.9451 34.3037 34.9812 34.4323C35.0173 34.5609 35.0272 34.6954 35.0105 34.8278C34.9937 34.9603 34.9506 35.0881 34.8836 35.2037C34.8167 35.3192 34.7273 35.4202 34.6207 35.5006C34.5141 35.5811 34.3925 35.6393 34.263 35.672C32.292 36.227 30.93 35.349 30.604 34.193C30.28 33.039 30.983 31.58 32.957 31.024C33.727 30.807 33.958 30.44 33.924 30.322C33.892 30.205 33.502 30.01 32.734 30.226C30.76 30.782 29.4 29.904 29.075 28.747C28.75 27.593 29.453 26.134 31.426 25.577C32.194 25.362 32.425 24.992 32.393 24.876C32.359 24.758 31.97 24.564 31.201 24.78C31.0725 24.8233 30.9365 24.84 30.8013 24.8291C30.6661 24.8182 30.5345 24.7799 30.4146 24.7165C30.2947 24.6532 30.1889 24.5661 30.1037 24.4605C30.0185 24.355 29.9556 24.2333 29.919 24.1027C29.8823 23.9721 29.8726 23.8354 29.8904 23.701C29.9082 23.5665 29.9532 23.4371 30.0226 23.3206C30.092 23.204 30.1844 23.1029 30.2942 23.0232C30.4039 22.9435 30.5287 22.8869 30.661 22.857Z" fill="#BBD1D9"/>
<path d="M23.001 20.16C22.7939 20.1597 22.592 20.0952 22.4231 19.9754C22.2542 19.8556 22.1267 19.6863 22.058 19.4909C21.9893 19.2956 21.983 19.0837 22.0397 18.8846C22.0965 18.6854 22.2136 18.5088 22.375 18.379C22.593 18.204 27.793 14.12 35.142 15.171C35.275 15.186 35.4035 15.2276 35.5201 15.2932C35.6367 15.3588 35.739 15.4472 35.8208 15.5531C35.9027 15.6589 35.9624 15.7801 35.9965 15.9095C36.0307 16.0389 36.0385 16.1738 36.0196 16.3062C36.0006 16.4387 35.9553 16.566 35.8863 16.6806C35.8172 16.7952 35.7259 16.8948 35.6177 16.9735C35.5095 17.0522 35.3866 17.1083 35.2562 17.1387C35.1259 17.169 34.9908 17.1728 34.859 17.15C28.366 16.228 23.672 19.904 23.626 19.941C23.4486 20.0829 23.2282 20.1602 23.001 20.16Z" fill="#F3A492"/>
<path d="M5.754 16C5.59813 16 5.44442 15.9636 5.30513 15.8936C5.16585 15.8237 5.04484 15.7221 4.95177 15.5971C4.8587 15.4721 4.79615 15.327 4.7691 15.1735C4.74206 15.02 4.75127 14.8623 4.796 14.713C5.929 10.94 6.956 4.919 5.694 3.349C5.553 3.171 5.34 2.996 4.852 3.033C3.914 3.105 4.003 5.084 4.004 5.104C4.0167 5.23648 4.00283 5.37016 3.9632 5.49721C3.92357 5.62427 3.85898 5.74213 3.77321 5.84389C3.68744 5.94566 3.58221 6.02928 3.46371 6.08985C3.34521 6.15043 3.2158 6.18674 3.08308 6.19665C2.95036 6.20657 2.817 6.1899 2.69081 6.14761C2.56462 6.10532 2.44814 6.03826 2.3482 5.95038C2.24826 5.86249 2.16686 5.75553 2.10879 5.63578C2.05072 5.51603 2.01713 5.3859 2.01 5.253C1.907 3.874 2.336 1.218 4.702 1.039C5.758 0.958999 6.635 1.326 7.254 2.096C9.625 5.047 7.218 13.602 6.712 15.288C6.65008 15.4939 6.52345 15.6744 6.35088 15.8026C6.17832 15.9309 5.96901 16.0001 5.754 16Z" fill="#BBD1D9"/>
<path d="M25.5 11C26.3284 11 27 10.3284 27 9.5C27 8.67157 26.3284 8 25.5 8C24.6716 8 24 8.67157 24 9.5C24 10.3284 24.6716 11 25.5 11Z" fill="#BBD1D9"/>
<path d="M2 20C3.10457 20 4 19.1046 4 18C4 16.8954 3.10457 16 2 16C0.89543 16 0 16.8954 0 18C0 19.1046 0.89543 20 2 20Z" fill="#D96F6E"/>
<path d="M32.5 21C33.3284 21 34 20.3284 34 19.5C34 18.6716 33.3284 18 32.5 18C31.6716 18 31 18.6716 31 19.5C31 20.3284 31.6716 21 32.5 21Z" fill="#BBD1D9"/>
<path d="M23.5 33C24.3284 33 25 32.3284 25 31.5C25 30.6716 24.3284 30 23.5 30C22.6716 30 22 30.6716 22 31.5C22 32.3284 22.6716 33 23.5 33Z" fill="#BBD1D9"/>
<path d="M28 6C29.1046 6 30 5.10457 30 4C30 2.89543 29.1046 2 28 2C26.8954 2 26 2.89543 26 4C26 5.10457 26.8954 6 28 6Z" fill="#FFCC4D"/>
<path d="M32.5 10C33.3284 10 34 9.32843 34 8.5C34 7.67157 33.3284 7 32.5 7C31.6716 7 31 7.67157 31 8.5C31 9.32843 31.6716 10 32.5 10Z" fill="#FFCC4D"/>
<path d="M29.5 14C30.3284 14 31 13.3284 31 12.5C31 11.6716 30.3284 11 29.5 11C28.6716 11 28 11.6716 28 12.5C28 13.3284 28.6716 14 29.5 14Z" fill="#FFCC4D"/>
<path d="M7.5 25C8.32843 25 9 24.3284 9 23.5C9 22.6716 8.32843 22 7.5 22C6.67157 22 6 22.6716 6 23.5C6 24.3284 6.67157 25 7.5 25Z" fill="#FFCC4D"/>
</g>
<defs>
<clipPath id="clip0_31_338">
<rect width="36" height="36" fill="white"/>
</clipPath>
</defs>
</svg>
